<svg xmlns="http://www.w3.org/2000/svg" width="220" height="44" fill="none"><path fill="#fff" d="M0 0h220v44H0z"/><path fill="#fff" d="M53.202 24.472c.063-4.112 2.543-11.654 11.957-8.92l4.745 1.708-.38 1.708c2.657-.76 8.237-.76 9.3 5.314 3.543 1.772 8.237 6.87-1.328 13.096l-22.586-.38c-6.833-2.467-6.833-10.059-1.708-12.526"/><path fill="#602EF9" d="M59.838.43c-.755.2-1.42.698-1.734 1.296L57.962 2l-.014 6.447c-.01 4.614-.024 6.467-.062 6.517-.029.035-.219.16-.418.274-1.292.737-2.632 2.053-3.52 3.443-.518.812-1.003 2.067-1.193 3.089-.052.279-.11.832-.123 1.23l-.029.723-.409.274c-.522.349-1.833 1.704-2.161 2.232a6.9 6.9 0 0 0-.936 2.377c-.105.538-.09 2.87.014 3.363.18.842.5 1.62.936 2.317.29.458 1.592 1.828 2.024 2.127.665.454 1.23.718 1.967.927.437.12.518.124 2.17.144l1.716.025-.005 1.924-.005 1.928.157.324c.086.179.2.378.261.448.19.22.575.533.794.648.119.06.247.124.29.15.042.024.29.089.546.149l.47.104 14.775-.015 14.775-.014.332-.105c.48-.15.931-.399 1.197-.663.224-.224.49-.563.49-.628 0-.015.042-.13.095-.249.095-.214.095-.339.095-12.93 0-6.99-.01-12.73-.024-12.754-.014-.02-4.1-.03-9.083-.01-8.03.02-9.07.015-9.122-.05-.047-.06-.062-1.709-.071-7.743L73.877.355l-6.841-.01C60.494.34 60.18.34 59.838.43m2.993 14.823c.746.095 1.131.184 1.744.399 1.943.687 3.496 2.012 4.599 3.93.042.075.066.075.29-.04.26-.134.845-.328 1.396-.463.499-.124 1.953-.124 2.494 0 .874.2 1.739.578 2.47 1.092.5.343 1.355 1.245 1.692 1.783.446.703.784 1.5.978 2.292.038.155.086.2.48.409a6.17 6.17 0 0 1 2.67 2.82c.523 1.11.741 2.461.58 3.547-.319 2.148-1.464 3.847-3.226 4.788-.47.25-1.154.494-1.7.603-.485.095-22.258.095-22.614 0-1.16-.314-1.9-.707-2.713-1.445-.703-.637-1.25-1.46-1.625-2.441-.318-.832-.365-1.136-.365-2.327.004-1.076.014-1.17.247-1.943.437-1.445 1.596-2.875 2.898-3.577l.394-.21v-.548c0-2.307.903-4.559 2.48-6.188.67-.697 1.42-1.285 1.867-1.47.104-.044.328-.15.499-.234a8.1 8.1 0 0 1 2.541-.767 6.7 6.7 0 0 1 1.924-.01"/><path fill="#602EF9" d="M63.75 24.49c-.589.22-.978.803-.978 1.46 0 .3.023.4.161.683.152.314.195.36.675.718.076.06.057.17-.323 1.684-.224.892-.404 1.65-.404 1.679 0 .05.299.065 1.349.065h1.35l-.234-.962c-.133-.523-.323-1.285-.422-1.689l-.181-.732.2-.125c.798-.488.964-1.614.356-2.342-.375-.448-1.026-.632-1.549-.438M76.11.455c-.015.025-.03 3.059-.039 6.756-.01 5.904-.005 6.716.057 6.746.1.05 15.773.02 15.773-.03 0-.025-.09-.11-.2-.194a26 26 0 0 1-.893-.747c-.38-.324-1.022-.867-1.42-1.211-.404-.344-.918-.782-1.145-.972-.228-.194-.998-.852-1.71-1.47a281 281 0 0 0-2.229-1.908c-.513-.433-.974-.827-1.026-.872-.052-.05-.318-.274-.594-.508a165 165 0 0 1-1.853-1.594c-.118-.105-.356-.31-.527-.459-.171-.144-.589-.498-.922-.787-.332-.289-.86-.737-1.168-.996C76.636.873 76.27.554 76.27.519c0-.06-.133-.11-.162-.064M116.163 5.416v1.666h3.425V3.75h-3.425zM137.265 5.416v1.666h3.425V3.75h-3.425zM186.062 14.735v10.984h3.426v-2.488l.005-2.483.62-.797c.338-.432.635-.791.655-.791s.72 1.468 1.554 3.264l1.519 3.27 1.921.015c1.052.005 1.916 0 1.916-.01 0-.016-1.062-2.15-2.363-4.743-1.628-3.244-2.348-4.732-2.318-4.78a765 765 0 0 0 4.433-6.408c0-.02-.829-.026-1.842-.02l-1.846.015-2.055 3.072c-1.132 1.686-2.085 3.108-2.125 3.15-.064.062-.074-.693-.074-6.081V3.75h-3.426zM99.135 15.292v10.412l3.787-.02c4.041-.021 4.011-.021 4.999-.297 3.053-.864 4.914-3.525 5.485-7.861.109-.818.154-3.202.079-4.113-.387-4.644-2.382-7.497-5.817-8.299-.938-.218-1.395-.239-5.063-.239h-3.47zm7.322-6.783c1.682.458 2.695 1.728 3.117 3.883.104.542.109.709.109 2.66 0 1.781-.015 2.166-.089 2.65-.422 2.609-1.623 4.134-3.535 4.483-.317.057-.804.078-1.816.078h-1.385l-.01-6.914c-.01-3.8-.005-6.929.005-6.95.01-.026.734-.036 1.613-.02 1.415.015 1.638.03 1.991.13M144.021 15.287v10.412h12.112v-3.644h-8.389V4.875h-3.723zM132.33 7.52c-.158.792-.635 1.656-1.166 2.12l-.233.208-.447-.146a8 8 0 0 0-.864-.219c-.531-.093-2.03-.093-2.531 0-2.274.412-3.659 1.682-4.18 3.842-.099.401-.114.589-.114 1.526.005.926.02 1.13.114 1.525.233.984.65 1.76 1.286 2.41.362.37.372.386.258.433-.859.338-1.504.9-1.827 1.587-.189.401-.248.693-.253 1.15 0 .902.412 1.771 1.057 2.245l.144.104-.323.218c-.173.12-.496.412-.714.651-.641.713-.869 1.349-.869 2.405 0 .672.089 1.12.328 1.656.402.916 1.102 1.551 2.065 1.89.253.088.531.099 3.549.114 3.415.016 3.777 0 4.492-.203a4.69 4.69 0 0 0 3.172-3.144c.452-1.468.233-3.15-.561-4.316a3.27 3.27 0 0 0-1.638-1.265l-.402-.146-3.102-.026c-3.019-.026-3.108-.031-3.277-.135-.278-.172-.397-.401-.397-.776 0-.27.02-.354.144-.53.263-.386.343-.402 1.941-.438 1.494-.037 1.996-.1 2.73-.36 2.115-.739 3.271-2.53 3.276-5.075 0-1.307-.327-2.437-.963-3.348-.198-.28-.218-.328-.144-.354a7 7 0 0 0 .512-.244c.729-.38 1.31-1.083 1.593-1.948.119-.374.243-1.14.243-1.54v-.297h-2.814zm-3.097 4.723c.829.333 1.286 1.239 1.286 2.556 0 1.114-.214 1.749-.75 2.254-.313.297-.7.453-1.201.49-1.494.114-2.338-.86-2.338-2.692q-.007-2.27 1.529-2.692c.367-.099 1.122-.057 1.474.083m1.906 13.39c.695.275 1.023 1.035.789 1.848-.104.359-.317.614-.709.812l-.333.172-2.269.015c-1.479.01-2.343-.005-2.467-.042-.541-.15-.938-.666-.982-1.265-.055-.728.312-1.332.963-1.577.148-.052.68-.068 2.457-.073 2.199 0 2.278.005 2.551.11M163.245 9.386c-3.122.36-4.75 2.332-5.197 6.294-.099.864-.079 3.415.025 4.264.367 2.853 1.325 4.586 3.038 5.482 1.529.801 3.921.853 5.594.125 1.028-.453 1.926-1.364 2.487-2.536.933-1.947 1.197-6.028.571-8.845-.7-3.165-2.497-4.722-5.525-4.79-.437-.01-.883-.005-.993.006m1.326 3.098c1.449.322 1.98 1.92 1.911 5.72-.025 1.516-.104 2.208-.333 2.994-.213.719-.61 1.307-1.047 1.541a2.31 2.31 0 0 1-2.144-.02c-.487-.266-.77-.677-1.023-1.469-.293-.942-.328-1.296-.328-3.54 0-1.754.015-2.103.095-2.55.243-1.385.655-2.177 1.32-2.51.427-.219 1.028-.281 1.549-.167M177.197 9.412c-2.402.349-3.817 1.848-4.412 4.685-.388 1.817-.437 4.587-.13 6.58.412 2.656 1.445 4.264 3.187 4.972 1.102.453 2.765.537 4.031.203.521-.135 1.31-.546 1.698-.88 1.027-.874 1.638-2.337 1.797-4.294.029-.344.054-.713.054-.823v-.192l-1.722.01-1.728.016-.034.63c-.05.994-.264 1.764-.606 2.191a1.6 1.6 0 0 1-.387.302c-.239.14-.303.156-.735.156-.407 0-.511-.02-.745-.135-.655-.328-1.012-.99-1.245-2.311-.09-.485-.11-.86-.13-2.385-.029-2.01.015-2.811.214-3.722.278-1.302.794-1.91 1.663-1.978 1.142-.084 1.762.812 1.866 2.702l.03.567h3.569l-.03-.562c-.084-1.323-.273-2.197-.675-3.056-.655-1.427-1.668-2.234-3.201-2.577-.576-.125-1.792-.177-2.329-.1M203.72 9.393l-.496.078c-1.122.172-2.125.734-2.909 1.63-1.236 1.405-1.822 3.8-1.742 7.111.084 3.384.858 5.555 2.407 6.763.874.677 1.871 1.015 3.187 1.083 2.1.104 3.837-.693 4.785-2.197.571-.9.923-2.182.923-3.374v-.453l-1.697.01-1.703.016-.03.469c-.084 1.203-.486 2.025-1.171 2.38-.303.155-.377.17-.784.17-.596 0-.889-.108-1.261-.473-.621-.599-.953-1.671-1.033-3.31l-.03-.667h3.857c3.336 0 3.857-.01 3.882-.078.05-.125-.074-2.827-.154-3.41-.223-1.63-.63-2.88-1.236-3.764-.298-.443-.888-1.02-1.305-1.281a5.3 5.3 0 0 0-1.534-.604c-.372-.083-1.683-.15-1.956-.099m1.186 3.02c.318.099.671.421.864.786.268.52.482 1.608.482 2.462v.313h-4.021v-.224c0-.297.129-1.182.233-1.572.114-.448.368-1.01.561-1.24.432-.52 1.211-.739 1.881-.525M217.965 9.433c-.799.24-1.435.958-1.866 2.12-.169.457-.263.587-.333.468-.015-.021-.104-.505-.208-1.078-.1-.573-.189-1.083-.204-1.135-.025-.083-.139-.088-1.464-.088h-1.435v15.982h3.47l.015-4.987c.015-4.951.02-4.982.124-5.389.169-.614.382-1.04.72-1.416.551-.62 1.102-.806 2.412-.806H220l-.01-1.76-.015-1.755-.347-.093c-.491-.13-1.316-.162-1.663-.063M116.163 17.741v7.992h3.425V9.75h-3.425zM137.265 17.741v7.992h3.425V9.75h-3.425z"/><path fill="#504A4A" d="M99.135 36.048h1.794q1.035 0 1.609.774.58.775.581 2.26 0 1.584-.573 2.404-.573.81-1.617.81h-1.794zm1.727 5.52q.699 0 1.086-.565.396-.573.396-1.694v-.455q0-1.02-.396-1.549-.387-.528-1.086-.528h-.986v4.791zm4.63.838q-.783 0-1.187-.61-.396-.62-.396-1.895t.396-1.886q.404-.618 1.187-.619.783 0 1.179.62.404.61.404 1.885t-.404 1.895q-.396.61-1.179.61m0-.665q.86 0 .859-1.667v-.346q0-1.667-.859-1.667t-.859 1.667v.346q0 1.667.859 1.667m3.782.665q-.783 0-1.154-.601-.362-.61-.362-1.904 0-1.293.371-1.895.37-.61 1.145-.61.708 0 1.028.474.328.474.328 1.412h-.716q0-.647-.143-.93-.134-.29-.497-.29-.403 0-.598.418-.193.41-.193 1.248v.346q0 .839.185 1.257.194.41.606.41.363 0 .514-.3.16-.301.16-.92h.682q0 .819-.336 1.357-.328.528-1.02.528m3.278 0q-.53 0-.817-.337-.278-.346-.278-1.111v-3.453h.691v3.398q0 .465.16.656.16.182.463.182.345 0 .581-.355.244-.355.244-.957v-2.924h.691v4.792h-.522l-.093-.556h-.05q-.346.665-1.07.665m2.788-4.9h.522l.093.555h.051q.329-.665 1.01-.665.716 0 .944.692a1.21 1.21 0 0 1 1.078-.692q1.044 0 1.044 1.448v3.453h-.69v-3.398q0-.465-.152-.647a.5.5 0 0 0-.421-.19q-.32 0-.539.354-.219.355-.219.957v2.924h-.691v-3.398q0-.465-.151-.647a.51.51 0 0 0-.421-.19q-.32 0-.548.354-.219.355-.219.957v2.924h-.691zm7.316 4.9q-.841 0-1.263-.592-.413-.6-.413-1.913 0-1.284.413-1.895.412-.61 1.255-.61.741 0 1.095.538.362.528.362 1.712v.474h-2.401q.01.837.236 1.23.236.39.733.391a.63.63 0 0 0 .539-.291q.211-.292.211-.784h.682q0 .802-.404 1.276-.396.465-1.045.464m.724-2.951q0-.684-.184-1.039-.186-.354-.548-.355-.447 0-.674.346-.219.337-.261 1.048zm1.635-1.95h.522l.093.556h.05q.346-.665 1.07-.665.53 0 .809.346.286.337.286 1.102v3.453h-.691v-3.398q0-.465-.16-.647-.16-.19-.463-.19-.345 0-.59.354-.235.355-.235.957v2.924h-.691zm4.667 4.883q-.421 0-.607-.31-.185-.319-.185-.792V38.17h-.379v-.665h.379l.151-1.33h.539v1.33h.599v.665h-.599v3.134q0 .437.396.437h.203v.52a1 1 0 0 1-.237.09 1 1 0 0 1-.26.037m2.712-6.34h.784l.884 4.318q.075.345.177 1.111h.033q.068-.592.143-1.111l.666-4.318h1.028l.716 4.318q.076.437.151 1.111h.034q.092-.72.177-1.111l.884-4.318h.674l-1.339 6.249h-.961l-.707-4.236a24 24 0 0 1-.16-1.257h-.034q-.093.856-.16 1.257l-.69 4.236h-.961zm7.674 6.358q-.454 0-.808-.291-.354-.292-.354-1.057 0-.92.573-1.257.58-.346 1.667-.346v-.62q0-.373-.151-.574-.152-.2-.548-.2-.362 0-.522.219a.9.9 0 0 0-.16.537v.11h-.682a2 2 0 0 1-.009-.201q0-.638.388-.984.387-.345 1.036-.346.665 0 1.002.346t.337.993v2.687q0 .156.067.237a.21.21 0 0 0 .169.082h.269v.52a.9.9 0 0 1-.454.109.7.7 0 0 1-.455-.155.86.86 0 0 1-.244-.437h-.043q-.167.3-.455.464a1.2 1.2 0 0 1-.623.164m.16-.665a.8.8 0 0 0 .439-.136q.21-.138.345-.401.134-.273.134-.647v-.437q-.758 0-1.136.191-.38.182-.38.701 0 .392.143.565.152.165.455.164m2.696-6.03h.691v6.586h-.691zm1.572 0h.69v6.586h-.69zm3.18 6.695q-.841 0-1.263-.592-.413-.6-.413-1.913 0-1.284.413-1.895.414-.61 1.255-.61.741 0 1.095.538.362.528.363 1.712v.474h-2.401q.008.837.236 1.23.236.39.733.391a.62.62 0 0 0 .538-.291q.211-.292.211-.784h.683q0 .802-.405 1.276-.396.465-1.045.464m.725-2.951q0-.684-.185-1.039t-.548-.355q-.446 0-.674.346-.22.337-.26 1.048zm2.418 2.933q-.422 0-.607-.31-.185-.319-.185-.792V38.17h-.379v-.665h.379l.151-1.33h.54v1.33h.598v.665h-.598v3.134q0 .437.396.437h.202v.52a1 1 0 0 1-.236.09 1 1 0 0 1-.261.037m3.917 0q-.422 0-.606-.31-.186-.319-.186-.792V38.17h-.379v-.665h.379l.152-1.33h.539v1.33h.598v.665h-.598v3.134q0 .437.396.437h.202v.52a1 1 0 0 1-.236.09 1 1 0 0 1-.261.037m2.59.018q-.783 0-1.188-.61-.396-.62-.395-1.895 0-1.275.395-1.886.405-.618 1.188-.619.783 0 1.179.62.405.61.405 1.885t-.405 1.895q-.396.61-1.179.61m0-.665q.86 0 .859-1.667v-.346q0-1.667-.859-1.667-.86 0-.859 1.667v.346q0 1.667.859 1.667m4.511-5.693h3.563v.729h-2.822v1.958h2.451v.729h-2.451v2.104h2.873v.729h-3.614zm4.564 1.457h.523l.092.556h.05q.328-.665 1.011-.665.716 0 .943.692a1.21 1.21 0 0 1 1.079-.692q1.044 0 1.044 1.448v3.453h-.691v-3.398q0-.465-.151-.647a.51.51 0 0 0-.421-.19q-.32 0-.54.354-.218.355-.218.957v2.924h-.691v-3.398q0-.465-.152-.647a.5.5 0 0 0-.421-.19q-.32 0-.547.354-.219.355-.219.957v2.924h-.691zm5.792 0h.522l.092.556h.043q.16-.328.412-.492a.96.96 0 0 1 .556-.173q.657 0 1.011.62.362.62.362 1.894 0 1.24-.371 1.868-.362.628-.951.628-.321 0-.581-.137a.84.84 0 0 1-.363-.391h-.042v1.995h-.69zm1.482 4.236q.405 0 .598-.392.193-.39.193-1.275v-.346q0-.884-.193-1.275-.193-.392-.598-.392-.792 0-.792 1.667v.346q0 1.667.792 1.667m3.816.665q-.784 0-1.188-.61-.396-.62-.396-1.895t.396-1.886q.404-.618 1.188-.619.783 0 1.179.62.404.61.404 1.885t-.404 1.895q-.396.61-1.179.61m0-.665q.859 0 .859-1.667v-.346q0-1.667-.859-1.667-.86 0-.859 1.667v.346q0 1.667.859 1.667m1.971-4.236h.758l.556 2.697q.084.373.177 1.138h.033q.06-.675.136-1.138l.446-2.697h.8l.454 2.697q.076.455.135 1.138h.034q.077-.62.177-1.138l.556-2.697h.699l-1.104 4.792h-.766l-.463-2.733a11 11 0 0 1-.135-1.102h-.034q-.059.628-.134 1.102l-.455 2.733h-.767zm7.048 4.901q-.843 0-1.263-.592-.414-.6-.413-1.913 0-1.284.413-1.895.412-.61 1.255-.61.741 0 1.095.538.361.528.361 1.712v.474h-2.4q.008.837.236 1.23.235.39.733.391a.63.63 0 0 0 .539-.291q.21-.292.21-.784h.682q0 .802-.404 1.276-.396.465-1.044.464m.725-2.951q0-.684-.186-1.039t-.547-.355q-.447 0-.674.346-.219.337-.262 1.048zm1.634-1.95h.522l.092.629h.051q.093-.32.278-.528a.6.6 0 0 1 .472-.21q.177 0 .328.073v.774h-.228a.75.75 0 0 0-.597.273q-.228.265-.228.857v2.924h-.69zm6.426 4.901q-2.274 0-2.274-3.234t2.274-3.233q.918 0 1.465.61.548.6.548 1.758h-.758q0-.801-.337-1.212-.338-.419-.918-.419-.758 0-1.129.565-.37.566-.371 1.704v.455q0 1.14.371 1.703.371.565 1.129.565.598 0 .934-.41.346-.41.346-1.202h.733q0 1.166-.548 1.758-.538.592-1.465.592m3.013-4.9h.691v4.79h-.691zm-.016-1.795h.715v.865h-.715zm2.649 6.677q-.421 0-.607-.31-.185-.319-.185-.792V38.17h-.379v-.665h.379l.152-1.33h.539v1.33h.597v.665h-.597v3.134q0 .437.395.437h.202v.52a1 1 0 0 1-.235.09 1 1 0 0 1-.261.037m1.285-4.883h.69v4.792h-.69zm-.017-1.794h.716v.865h-.716zm1.579 6.23 1.946-3.77h-1.811v-.666h2.763v.347l-1.954 3.78h2.063v.665h-3.007zm5.308.465q-.843 0-1.264-.592-.412-.6-.412-1.913 0-1.284.412-1.895.414-.61 1.255-.61.742 0 1.095.538.362.528.362 1.712v.474h-2.4q.008.837.236 1.23.235.39.733.391a.62.62 0 0 0 .538-.291q.211-.292.211-.784h.682q0 .802-.404 1.276-.396.465-1.044.464m.724-2.951q0-.684-.186-1.039-.184-.354-.547-.355-.446 0-.674.346-.218.337-.261 1.048zm1.634-1.95h.523l.092.556h.051q.345-.665 1.069-.665.531 0 .809.346.287.337.287 1.102v3.453h-.691v-3.398q0-.465-.161-.647-.159-.19-.462-.19-.346 0-.59.354-.236.355-.236.957v2.924h-.691zm5.08 4.901q-.717 0-1.07-.4a1.48 1.48 0 0 1-.354-1.003v-.145l.009-.055h.724v.09q0 .429.202.648.202.21.522.21.288 0 .472-.183.193-.191.193-.528 0-.255-.117-.42a.85.85 0 0 0-.287-.254 3 3 0 0 0-.472-.219 3.6 3.6 0 0 1-.597-.273 1.15 1.15 0 0 1-.388-.401q-.16-.273-.16-.71 0-.63.371-.993.379-.375 1.011-.374.597 0 .934.383.338.373.338.929l-.009.173h-.716v-.082a.9.9 0 0 0-.143-.528q-.144-.219-.472-.219t-.463.2a.8.8 0 0 0-.135.456q0 .31.194.464.203.147.615.292.378.146.623.291.245.137.413.42.176.282.176.755 0 .738-.387 1.112-.38.364-1.027.364"/></svg>
